<svg xmlns="http://www.w3.org/2000/svg" width="150" height="60" fill="none" viewBox="0 0 150 60">
  <path fill="#00AF8D" d="M68.88 25V11h5.76c1.24 0 2.3.2 3.18.6.893.4 1.58.973 2.06 1.72s.72 1.633.72 2.66c0 1.027-.24 1.913-.72 2.66-.48.733-1.167 1.3-2.06 1.7-.88.387-1.94.58-3.18.58h-4.32l1.16-1.18V25h-2.6Zm9.16 0-3.54-5.08h2.78L80.84 25h-2.8Zm-6.56-4.98-1.16-1.24h4.2c1.147 0 2.007-.247 2.58-.74.587-.493.88-1.18.88-2.06 0-.893-.293-1.58-.88-2.06-.573-.48-1.433-.72-2.58-.72h-4.2l1.16-1.28v8.1Zm16.809 5.12c-1.187 0-2.227-.233-3.12-.7a5.302 5.302 0 0 1-2.06-1.96c-.48-.827-.72-1.767-.72-2.82 0-1.067.233-2.007.7-2.82a5.166 5.166 0 0 1 1.96-1.94c.84-.467 1.793-.7 2.86-.7 1.04 0 1.967.227 2.78.68a4.923 4.923 0 0 1 1.92 1.92c.467.827.7 1.8.7 2.92 0 .107-.007.227-.02.36 0 .133-.007.26-.02.38h-8.9V18.8h7.58l-.98.52c.013-.613-.113-1.153-.38-1.62a2.905 2.905 0 0 0-1.1-1.1c-.453-.267-.98-.4-1.58-.4-.613 0-1.153.133-1.62.4a2.91 2.91 0 0 0-1.08 1.12c-.253.467-.38 1.02-.38 1.66v.4c0 .64.147 1.207.44 1.7.293.493.707.873 1.24 1.14.533.267 1.147.4 1.84.4.6 0 1.14-.093 1.62-.28a3.45 3.45 0 0 0 1.28-.88l1.34 1.54a4.79 4.79 0 0 1-1.82 1.3c-.72.293-1.547.44-2.48.44ZM101.77 14.2c.854 0 1.614.167 2.28.5.68.333 1.214.847 1.6 1.54.387.68.58 1.56.58 2.64V25h-2.5v-5.8c0-.947-.226-1.653-.68-2.12-.44-.467-1.06-.7-1.86-.7-.586 0-1.106.12-1.56.36-.453.24-.806.6-1.06 1.08-.24.467-.36 1.06-.36 1.78V25h-2.5V14.32h2.38v2.88l-.42-.88c.374-.68.914-1.2 1.62-1.56.72-.373 1.547-.56 2.48-.56Zm11.652 10.94c-1.174 0-2.08-.3-2.72-.9-.64-.613-.96-1.513-.96-2.7v-9.58h2.5v9.52c0 .507.126.9.38 1.18.266.28.633.42 1.1.42.56 0 1.026-.147 1.4-.44l.7 1.78c-.294.24-.654.42-1.08.54-.427.12-.867.18-1.32.18Zm-5.44-8.74v-2h7.12v2h-7.12Zm16.476 8.6v-2.16l-.14-.46V18.6c0-.733-.22-1.3-.66-1.7-.44-.413-1.106-.62-2-.62-.6 0-1.193.093-1.78.28a4.366 4.366 0 0 0-1.46.78l-.98-1.82c.574-.44 1.254-.767 2.04-.98.8-.227 1.627-.34 2.48-.34 1.547 0 2.74.373 3.58 1.12.854.733 1.28 1.873 1.28 3.42V25h-2.36Zm-3.36.14c-.8 0-1.5-.133-2.1-.4-.6-.28-1.066-.66-1.4-1.14a2.985 2.985 0 0 1-.48-1.66c0-.6.14-1.14.42-1.62.294-.48.767-.86 1.42-1.14.654-.28 1.52-.42 2.6-.42h3.1v1.66h-2.92c-.853 0-1.426.14-1.72.42-.293.267-.44.6-.44 1 0 .453.18.813.54 1.08.36.267.86.4 1.5.4.614 0 1.16-.14 1.64-.42.494-.28.847-.693 1.06-1.24l.42 1.5c-.24.627-.673 1.113-1.3 1.46-.613.347-1.393.52-2.34.52Zm8.929-.14V10.16h2.5V25h-2.5ZM68.88 49V35h2.6v14h-2.6Zm12.207-10.8c.853 0 1.613.167 2.28.5.68.333 1.213.847 1.6 1.54.386.68.58 1.56.58 2.64V49h-2.5v-5.8c0-.947-.227-1.653-.68-2.12-.44-.467-1.06-.7-1.86-.7-.587 0-1.107.12-1.56.36-.454.24-.807.6-1.06 1.08-.24.467-.36 1.06-.36 1.78V49h-2.5V38.32h2.38v2.88l-.42-.88c.373-.68.913-1.2 1.62-1.56.72-.373 1.546-.56 2.48-.56Zm10.931 10.94a9.712 9.712 0 0 1-2.58-.34c-.813-.24-1.46-.527-1.94-.86l.96-1.9c.48.307 1.053.56 1.72.76.667.2 1.334.3 2 .3.787 0 1.353-.107 1.7-.32.36-.213.54-.5.54-.86a.723.723 0 0 0-.36-.66c-.24-.16-.553-.28-.94-.36-.386-.08-.82-.153-1.3-.22-.466-.067-.94-.153-1.42-.26a5.447 5.447 0 0 1-1.28-.5 2.762 2.762 0 0 1-.94-.9c-.24-.373-.36-.867-.36-1.48 0-.68.194-1.267.58-1.76.387-.507.927-.893 1.62-1.16.707-.28 1.54-.42 2.5-.42.72 0 1.447.08 2.18.24.734.16 1.34.387 1.82.68l-.96 1.9a4.854 4.854 0 0 0-1.54-.62 6.575 6.575 0 0 0-1.52-.18c-.76 0-1.327.113-1.7.34-.36.227-.54.513-.54.86 0 .32.12.56.36.72.24.16.553.287.94.38.387.093.813.173 1.28.24.48.053.954.14 1.42.26.467.12.894.287 1.28.5.4.2.72.487.96.86s.36.86.36 1.46c0 .667-.2 1.247-.6 1.74-.386.493-.94.88-1.66 1.16-.72.267-1.58.4-2.58.4Zm6.993-.14V38.32h2.5V49h-2.5Zm1.26-12.44c-.467 0-.853-.147-1.16-.44a1.445 1.445 0 0 1-.44-1.06c0-.427.147-.78.44-1.06.307-.293.693-.44 1.16-.44.467 0 .847.14 1.14.42.307.267.46.607.46 1.02 0 .44-.147.813-.44 1.12-.293.293-.68.44-1.16.44Zm9.361 16.46a10.65 10.65 0 0 1-2.9-.4c-.933-.253-1.7-.627-2.3-1.12l1.12-1.88c.467.387 1.054.693 1.76.92.72.24 1.447.36 2.18.36 1.174 0 2.034-.273 2.58-.82.547-.533.82-1.34.82-2.42v-1.9l.2-2.42-.08-2.42v-2.6h2.38v9.06c0 1.933-.493 3.353-1.48 4.26-.986.92-2.413 1.38-4.28 1.38Zm-.32-4.5c-1.013 0-1.933-.213-2.76-.64a5.097 5.097 0 0 1-1.94-1.82c-.466-.773-.7-1.68-.7-2.72 0-1.027.234-1.927.7-2.7a4.948 4.948 0 0 1 1.94-1.8c.827-.427 1.747-.64 2.76-.64.907 0 1.72.18 2.44.54.72.36 1.294.92 1.72 1.68.44.76.66 1.733.66 2.92 0 1.187-.22 2.167-.66 2.94-.426.76-1 1.327-1.72 1.7-.72.36-1.533.54-2.44.54Zm.38-2.12c.627 0 1.187-.127 1.68-.38a2.866 2.866 0 0 0 1.14-1.08c.28-.467.42-1 .42-1.6 0-.6-.14-1.127-.42-1.58a2.574 2.574 0 0 0-1.14-1.06c-.493-.253-1.053-.38-1.68-.38-.626 0-1.193.127-1.7.38-.493.24-.88.593-1.16 1.06-.266.453-.4.98-.4 1.58 0 .6.134 1.133.4 1.6.28.453.667.813 1.16 1.08.507.253 1.074.38 1.7.38Zm15.047-8.2c.853 0 1.613.167 2.28.5a3.64 3.64 0 0 1 1.6 1.54c.387.68.58 1.56.58 2.64V49h-2.5v-5.8c0-.947-.227-1.653-.68-2.12-.44-.467-1.06-.7-1.86-.7-.587 0-1.107.12-1.56.36-.453.24-.807.6-1.06 1.08-.24.467-.36 1.06-.36 1.78V49h-2.5V34.16h2.5v7.04l-.54-.88c.373-.68.913-1.2 1.62-1.56.72-.373 1.547-.56 2.48-.56Zm11.651 10.94c-1.173 0-2.08-.3-2.72-.9-.64-.613-.96-1.513-.96-2.7v-9.58h2.5v9.52c0 .507.127.9.38 1.18.267.28.634.42 1.1.42.56 0 1.027-.147 1.4-.44l.7 1.78c-.293.24-.653.42-1.08.54-.426.12-.866.18-1.32.18Zm-5.44-8.74v-2h7.12v2h-7.12Z"/>
  <path fill="#3C3C3C" d="M50.622 18h-11.91v-4c-.002-.707-.317-1.385-.875-1.885-.557-.499-1.315-.78-2.104-.782H14.89c-.79.002-1.547.282-2.105.782-.559.5-.871 1.178-.873 1.885v32c.002.707.316 1.385.873 1.884.558.5 1.316.781 2.105.783h35.733a3.168 3.168 0 0 0 2.104-.783c.558-.5.873-1.177.874-1.884V20.667c-.002-.707-.316-1.386-.874-1.886A3.173 3.173 0 0 0 50.623 18ZM28.29 46h-5.956v-6.667h5.956V46Zm7.444 0h-4.466v-6.667c-.002-.706-.316-1.385-.874-1.884-.557-.5-1.315-.781-2.104-.782h-5.956a3.171 3.171 0 0 0-2.105.782c-.557.499-.87 1.178-.872 1.884V46H14.89l-.002-32h20.846v32Zm14.89 0H38.71V20.667h11.911V46Zm-4.467-16c0 .264-.088.521-.252.741-.162.219-.396.39-.667.491a1.656 1.656 0 0 1-.86.076 1.555 1.555 0 0 1-.763-.365 1.301 1.301 0 0 1-.408-.683 1.208 1.208 0 0 1 .085-.77c.113-.243.304-.453.548-.598.245-.147.533-.225.828-.225.394 0 .774.14 1.052.39.28.25.437.59.437.943Zm-2.978-5.333c0-.264.088-.522.251-.742.163-.218.396-.389.667-.49.273-.102.572-.127.861-.076.289.052.554.178.762.365a1.3 1.3 0 0 1 .408.683c.057.258.029.526-.085.77a1.379 1.379 0 0 1-.547.598 1.618 1.618 0 0 1-.828.225 1.58 1.58 0 0 1-1.053-.39c-.28-.25-.436-.59-.436-.943ZM31.267 30c0 .264-.088.521-.252.741-.162.219-.396.39-.667.491a1.656 1.656 0 0 1-.86.076 1.554 1.554 0 0 1-.763-.365 1.3 1.3 0 0 1-.408-.683 1.208 1.208 0 0 1 .085-.77c.113-.243.304-.453.548-.598.246-.147.533-.225.828-.225.394 0 .774.14 1.052.39.28.25.437.59.437.943Zm0-5.333c0 .264-.088.521-.252.741-.162.219-.396.39-.667.49a1.657 1.657 0 0 1-.86.077 1.553 1.553 0 0 1-.763-.366 1.3 1.3 0 0 1-.408-.682 1.208 1.208 0 0 1 .085-.771c.113-.243.304-.452.548-.597.246-.147.533-.226.828-.226.394 0 .774.14 1.052.391.28.25.437.59.437.943Zm0-5.334c0 .264-.088.522-.252.742a1.467 1.467 0 0 1-.667.49 1.655 1.655 0 0 1-.86.076 1.553 1.553 0 0 1-.763-.365 1.3 1.3 0 0 1-.408-.683 1.208 1.208 0 0 1 .085-.77c.113-.243.304-.452.548-.598.246-.146.533-.225.828-.225.394 0 .774.14 1.052.39.28.25.437.59.437.943ZM22.333 30c0 .264-.087.521-.251.741-.163.219-.396.39-.667.491a1.656 1.656 0 0 1-.86.076 1.555 1.555 0 0 1-.763-.365 1.3 1.3 0 0 1-.408-.683 1.209 1.209 0 0 1 .085-.77 1.38 1.38 0 0 1 .548-.598c.245-.147.533-.225.828-.225.394 0 .774.14 1.052.39.28.25.436.59.436.943Zm0-5.333c0 .264-.087.521-.251.741-.163.219-.396.39-.667.49a1.657 1.657 0 0 1-.86.077 1.554 1.554 0 0 1-.763-.366 1.3 1.3 0 0 1-.408-.682 1.209 1.209 0 0 1 .085-.771 1.38 1.38 0 0 1 .548-.597c.245-.147.533-.226.828-.226.394 0 .774.14 1.052.391.28.25.436.59.436.943Zm0-5.334c0 .264-.087.522-.251.742a1.472 1.472 0 0 1-.667.49 1.655 1.655 0 0 1-.86.076 1.554 1.554 0 0 1-.763-.365 1.3 1.3 0 0 1-.408-.683 1.208 1.208 0 0 1 .085-.77 1.38 1.38 0 0 1 .548-.598c.245-.146.533-.225.828-.225.394 0 .774.14 1.052.39.28.25.436.59.436.943Z"/>
</svg>
